{
  "accessors": [
    {
      "bufferView": 2,
      "componentType": 5126,
      "count": 745,
      "max": [
        251.5369873046875,
        -42.499992370605469,
        251.63697814941406
      ],
      "min": [
        -251.73699951171875,
        -42.499992370605469,
        -251.63697814941406
      ],
      "type": "VEC3"
    },
    {
      "bufferView": 2,
      "byteOffset": 8940,
      "componentType": 5126,
      "count": 745,
      "max": [
        0,
        1,
        0
      ],
      "min": [
        0,
        1,
        0
      ],
      "type": "VEC3"
    },
    {
      "bufferView": 3,
      "componentType": 5126,
      "count": 745,
      "max": [
        1,
        0,
        0.026928266510367393,
        1
      ],
      "min": [
        0.99956059455871582,
        0,
        -0.029641702771186829,
        1
      ],
      "type": "VEC4"
    },
    {
      "bufferView": 1,
      "componentType": 5126,
      "count": 745,
      "max": [
        0.99923807382583618,
        1
      ],
      "min": [
        0.00076192617416381836,
        2.9802322387695312e-08
      ],
      "type": "VEC2"
    },
    {
      "bufferView": 0,
      "componentType": 5125,
      "count": 4320,
      "max": [
        744
      ],
      "min": [
        0
      ],
      "type": "SCALAR"
    },
    {
      "bufferView": 2,
      "byteOffset": 17880,
      "componentType": 5126,
      "count": 36014,
      "max": [
        60.000003814697266,
        42.5,
        19.99952507019043
      ],
      "min": [
        -60.000003814697266,
        -12.500001907348633,
        -19.99952507019043
      ],
      "type": "VEC3"
    },
    {
      "bufferView": 2,
      "byteOffset": 450048,
      "componentType": 5126,
      "count": 36014,
      "max": [
        1,
        1,
        1
      ],
      "min": [
        -1,
        -1,
        -1
      ],
      "type": "VEC3"
    },
    {
      "bufferView": 3,
      "byteOffset": 11920,
      "componentType": 5126,
      "count": 36014,
      "max": [
        1,
        1,
        1,
        1
      ],
      "min": [
        -1,
        -0.70718824863433838,
        -1,
        -1
      ],
      "type": "VEC4"
    },
    {
      "bufferView": 1,
      "byteOffset": 5960,
      "componentType": 5126,
      "count": 36014,
      "max": [
        1.9668201208114624,
        1.9800000190734863
      ],
      "min": [
        0.02000001072883606,
        0.02000001072883606
      ],
      "type": "VEC2"
    },
    {
      "bufferView": 0,
      "byteOffset": 17280,
      "componentType": 5125,
      "count": 203520,
      "max": [
        36013
      ],
      "min": [
        0
      ],
      "type": "SCALAR"
    },
    {
      "bufferView": 2,
      "byteOffset": 882216,
      "componentType": 5126,
      "count": 65532,
      "max": [
        58.002548217773438,
        40.524997711181641,
        19.69999885559082
      ],
      "min": [
        -58.019001007080078,
        -10.529998779296875,
        17.700000762939453
      ],
      "type": "VEC3"
    },
    {
      "bufferView": 2,
      "byteOffset": 1668600,
      "componentType": 5126,
      "count": 65532,
      "max": [
        1,
        1,
        1
      ],
      "min": [
        -1,
        -1,
        -1
      ],
      "type": "VEC3"
    },
    {
      "bufferView": 3,
      "byteOffset": 588144,
      "componentType": 5126,
      "count": 65532,
      "max": [
        1,
        1,
        0.92382693290710449,
        1
      ],
      "min": [
        -1,
        -1,
        -0.92369341850280762,
        -1
      ],
      "type": "VEC4"
    },
    {
      "bufferView": 1,
      "byteOffset": 294072,
      "componentType": 5126,
      "count": 65532,
      "max": [
        1.486200213432312,
        1.1209489107131958
      ],
      "min": [
        0.016899771988391876,
        0.031836371868848801
      ],
      "type": "VEC2"
    },
    {
      "bufferView": 0,
      "byteOffset": 831360,
      "componentType": 5125,
      "count": 375087,
      "max": [
        65531
      ],
      "min": [
        0
      ],
      "type": "SCALAR"
    },
    {
      "bufferView": 2,
      "byteOffset": 2454984,
      "componentType": 5126,
      "count": 11336,
      "max": [
        58.002548217773438,
        40.511554718017578,
        19.69999885559082
      ],
      "min": [
        29.287551879882812,
        -10.50655460357666,
        17.700000762939453
      ],
      "type": "VEC3"
    },
    {
      "bufferView": 2,
      "byteOffset": 2591016,
      "componentType": 5126,
      "count": 11336,
      "max": [
        1,
        1,
        1
      ],
      "min": [
        -1,
        -1,
        -1
      ],
      "type": "VEC3"
    },
    {
      "bufferView": 3,
      "byteOffset": 1636656,
      "componentType": 5126,
      "count": 11336,
      "max": [
        1,
        1,
        0.92243582010269165,
        1
      ],
      "min": [
        -0.90026021003723145,
        -0.7071642279624939,
        -0.95015597343444824,
        -1
      ],
      "type": "VEC4"
    },
    {
      "bufferView": 1,
      "byteOffset": 818328,
      "componentType": 5126,
      "count": 11336,
      "max": [
        0.9579617977142334,
        1.075114369392395
      ],
      "min": [
        0.013804381713271141,
        0.033723685890436172
      ],
      "type": "VEC2"
    },
    {
      "bufferView": 0,
      "byteOffset": 2331708,
      "componentType": 5125,
      "count": 61905,
      "max": [
        11335
      ],
      "min": [
        0
      ],
      "type": "SCALAR"
    },
    {
      "bufferView": 2,
      "byteOffset": 2727048,
      "componentType": 5126,
      "count": 16412,
      "max": [
        53.756977081298828,
        -12.449999809265137,
        16.311506271362305
      ],
      "min": [
        -53.756977081298828,
        -42.500003814697266,
        -16.311506271362305
      ],
      "type": "VEC3"
    },
    {
      "bufferView": 2,
      "byteOffset": 2923992,
      "componentType": 5126,
      "count": 16412,
      "max": [
        1,
        1,
        1
      ],
      "min": [
        -1,
        -1,
        -1
      ],
      "type": "VEC3"
    },
    {
      "bufferView": 3,
      "byteOffset": 1818032,
      "componentType": 5126,
      "count": 16412,
      "max": [
        0.9872589111328125,
        0.77901029586791992,
        0.99997973442077637,
        1
      ],
      "min": [
        -0.98725640773773193,
        -0.99971252679824829,
        -0.99997973442077637,
        -1
      ],
      "type": "VEC4"
    },
    {
      "bufferView": 1,
      "byteOffset": 909016,
      "componentType": 5126,
      "count": 16412,
      "max": [
        1.9776113033294678,
        1.975652813911438
      ],
      "min": [
        0.02000001072883606,
        0.020079270005226135
      ],
      "type": "VEC2"
    },
    {
      "bufferView": 0,
      "byteOffset": 2579328,
      "componentType": 5125,
      "count": 94464,
      "max": [
        16411
      ],
      "min": [
        0
      ],
      "type": "SCALAR"
    },
    {
      "bufferView": 2,
      "byteOffset": 3120936,
      "componentType": 5126,
      "count": 13612,
      "max": [
        58.01953125,
        40.539527893066406,
        -17.600000381469727
      ],
      "min": [
        -58.01953125,
        -10.559524536132812,
        -18.600000381469727
      ],
      "type": "VEC3"
    },
    {
      "bufferView": 2,
      "byteOffset": 3284280,
      "componentType": 5126,
      "count": 13612,
      "max": [
        1,
        1,
        1
      ],
      "min": [
        -1,
        -1,
        -1
      ],
      "type": "VEC3"
    },
    {
      "bufferView": 3,
      "byteOffset": 2080624,
      "componentType": 5126,
      "count": 13612,
      "max": [
        1,
        1,
        0.70720934867858887,
        1
      ],
      "min": [
        -1,
        -0.70718145370483398,
        -0.70720928907394409,
        1
      ],
      "type": "VEC4"
    },
    {
      "bufferView": 1,
      "byteOffset": 1040312,
      "componentType": 5126,
      "count": 13612,
      "max": [
        0.96039998531341553,
        0.95755642652511597
      ],
      "min": [
        0.019600024446845055,
        0.022443553432822227
      ],
      "type": "VEC2"
    },
    {
      "bufferView": 0,
      "byteOffset": 2957184,
      "componentType": 5125,
      "count": 76800,
      "max": [
        13611
      ],
      "min": [
        0
      ],
      "type": "SCALAR"
    },
    {
      "bufferView": 2,
      "byteOffset": 3447624,
      "componentType": 5126,
      "count": 34300,
      "max": [
        51,
        -12.44999885559082,
        13
      ],
      "min": [
        -51,
        -17.350000381469727,
        -13
      ],
      "type": "VEC3"
    },
    {
      "bufferView": 2,
      "byteOffset": 3859224,
      "componentType": 5126,
      "count": 34300,
      "max": [
        1,
        1,
        1
      ],
      "min": [
        -1,
        -1,
        -1
      ],
      "type": "VEC3"
    },
    {
      "bufferView": 3,
      "byteOffset": 2298416,
      "componentType": 5126,
      "count": 34300,
      "max": [
        1,
        0.99937087297439575,
        1,
        1
      ],
      "min": [
        -1,
        -0.99936747550964355,
        -1,
        -1
      ],
      "type": "VEC4"
    },
    {
      "bufferView": 1,
      "byteOffset": 1149208,
      "componentType": 5126,
      "count": 34300,
      "max": [
        1,
        0.9115675687789917
      ],
      "min": [
        0,
        0.088335037231445312
      ],
      "type": "VEC2"
    },
    {
      "bufferView": 0,
      "byteOffset": 3264384,
      "componentType": 5125,
      "count": 198912,
      "max": [
        34299
      ],
      "min": [
        0
      ],
      "type": "SCALAR"
    }
  ],
  "asset": {
    "extras": {
      "author": "杭州维界科技有限公司 (https://sketchfab.com/zhousongjiang)",
      "license": "CC-BY-4.0 (http://creativecommons.org/licenses/by/4.0/)",
      "source": "https://sketchfab.com/models/7d0e63fad86240a6a827fd4d9a9ba507",
      "title": "AD-012"
    },
    "generator": "Sketchfab-3.20.7",
    "version": "2.0"
  },
  "bufferViews": [
    {
      "buffer": 0,
      "byteLength": 4060032,
      "byteOffset": 0,
      "name": "floatBufferViews",
      "target": 34963
    },
    {
      "buffer": 0,
      "byteLength": 1423608,
      "byteOffset": 4060032,
      "byteStride": 8,
      "name": "floatBufferViews",
      "target": 34962
    },
    {
      "buffer": 0,
      "byteLength": 4270824,
      "byteOffset": 5483640,
      "byteStride": 12,
      "name": "floatBufferViews",
      "target": 34962
    },
    {
      "buffer": 0,
      "byteLength": 2847216,
      "byteOffset": 9754464,
      "byteStride": 16,
      "name": "floatBufferViews",
      "target": 34962
    }
  ],
  "buffers": [
    {
      "byteLength": 12601680,
      "uri": "scene.bin"
    }
  ],
  "images": [
    {
      "uri": "textures/wood_baseColor.jpeg"
    },
    {
      "uri": "textures/plane_baseColor.png"
    }
  ],
  "materials": [
    {
      "alphaMode": "BLEND",
      "doubleSided": false,
      "emissiveFactor": [
        0,
        0,
        0
      ],
      "name": "plane",
      "pbrMetallicRoughness": {
        "baseColorFactor": [
          0.27419542760999999,
          0.27419542760999999,
          0.27419542760999999,
          1
        ],
        "baseColorTexture": {
          "index": 1,
          "texCoord": 0
        },
        "metallicFactor": 0,
        "roughnessFactor": 1
      }
    },
    {
      "doubleSided": true,
      "emissiveFactor": [
        0,
        0,
        0
      ],
      "name": "wood",
      "pbrMetallicRoughness": {
        "baseColorFactor": [
          1,
          1,
          1,
          1
        ],
        "baseColorTexture": {
          "index": 0,
          "texCoord": 0
        },
        "metallicFactor": 0,
        "roughnessFactor": 0.25085746949999999
      }
    }
  ],
  "meshes": [
    {
      "name": "plane_plane_0",
      "primitives": [
        {
          "attributes": {
            "NORMAL": 1,
            "POSITION": 0,
            "TANGENT": 2,
            "TEXCOORD_0": 3
          },
          "indices": 4,
          "material": 0,
          "mode": 4
        }
      ]
    },
    {
      "name": "Mesh_wood_0",
      "primitives": [
        {
          "attributes": {
            "NORMAL": 6,
            "POSITION": 5,
            "TANGENT": 7,
            "TEXCOORD_0": 8
          },
          "indices": 9,
          "material": 1,
          "mode": 4
        }
      ]
    },
    {
      "name": "Mesh (3)_wood_0",
      "primitives": [
        {
          "attributes": {
            "NORMAL": 11,
            "POSITION": 10,
            "TANGENT": 12,
            "TEXCOORD_0": 13
          },
          "indices": 14,
          "material": 1,
          "mode": 4
        }
      ]
    },
    {
      "name": "Mesh (3)_wood_0",
      "primitives": [
        {
          "attributes": {
            "NORMAL": 16,
            "POSITION": 15,
            "TANGENT": 17,
            "TEXCOORD_0": 18
          },
          "indices": 19,
          "material": 1,
          "mode": 4
        }
      ]
    },
    {
      "name": "Mesh (2)_wood_0",
      "primitives": [
        {
          "attributes": {
            "NORMAL": 21,
            "POSITION": 20,
            "TANGENT": 22,
            "TEXCOORD_0": 23
          },
          "indices": 24,
          "material": 1,
          "mode": 4
        }
      ]
    },
    {
      "name": "Mesh (4)_wood_0",
      "primitives": [
        {
          "attributes": {
            "NORMAL": 26,
            "POSITION": 25,
            "TANGENT": 27,
            "TEXCOORD_0": 28
          },
          "indices": 29,
          "material": 1,
          "mode": 4
        }
      ]
    },
    {
      "name": "Mesh (5)_wood_0",
      "primitives": [
        {
          "attributes": {
            "NORMAL": 31,
            "POSITION": 30,
            "TANGENT": 32,
            "TEXCOORD_0": 33
          },
          "indices": 34,
          "material": 1,
          "mode": 4
        }
      ]
    }
  ],
  "nodes": [
    {
      "children": [
        1
      ],
      "name": "RootNode (gltf orientation matrix)",
      "rotation": [
        -0.70710678118654746,
        -0,
        -0,
        0.70710678118654757
      ]
    },
    {
      "children": [
        2
      ],
      "name": "RootNode (model correction matrix)"
    },
    {
      "children": [
        3
      ],
      "matrix": [
        1,
        0,
        0,
        0,
        0,
        0,
        1,
        0,
        0,
        -1,
        0,
        0,
        0,
        0,
        0,
        1
      ],
      "name": "scene.fbx"
    },
    {
      "children": [
        4,
        6,
        8,
        11,
        13,
        15,
        17
      ],
      "name": "RootNode"
    },
    {
      "children": [
        5
      ],
      "name": "plane"
    },
    {
      "mesh": 0,
      "name": "plane_plane_0"
    },
    {
      "children": [
        7
      ],
      "name": "Mesh"
    },
    {
      "mesh": 1,
      "name": "Mesh_wood_0"
    },
    {
      "children": [
        9,
        10
      ],
      "name": "Mesh (3)"
    },
    {
      "mesh": 2,
      "name": "Mesh (3)_wood_0"
    },
    {
      "mesh": 3,
      "name": "Mesh (3)_wood_0"
    },
    {
      "children": [
        12
      ],
      "name": "Mesh (2)"
    },
    {
      "mesh": 4,
      "name": "Mesh (2)_wood_0"
    },
    {
      "children": [
        14
      ],
      "name": "Mesh (4)"
    },
    {
      "mesh": 5,
      "name": "Mesh (4)_wood_0"
    },
    {
      "children": [
        16
      ],
      "name": "Mesh (5)"
    },
    {
      "mesh": 6,
      "name": "Mesh (5)_wood_0"
    },
    {
      "children": [
        18
      ],
      "matrix": [
        0,
        -0.087155740218675365,
        -0.99619469831300289,
        0,
        6.9388939039072284e-18,
        0.99619469831300289,
        -0.087155740218675365,
        0,
        1,
        6.9388939039072284e-18,
        0,
        0,
        0,
        75,
        400,
        1
      ],
      "name": "Camera"
    },
    {
      "name": ""
    }
  ],
  "samplers": [
    {
      "magFilter": 9729,
      "minFilter": 9987,
      "wrapS": 10497,
      "wrapT": 10497
    }
  ],
  "scene": 0,
  "scenes": [
    {
      "name": "OSG_Scene",
      "nodes": [
        0
      ]
    }
  ],
  "textures": [
    {
      "sampler": 0,
      "source": 0
    },
    {
      "sampler": 0,
      "source": 1
    }
  ]
}

